<?xml version="1.0" encoding="utf-8"?>
<!-- Generator: Adobe Illustrator 16.0.0, SVG Export Plug-In . SVG Version: 6.00 Build 0)  -->
<!DOCTYPE svg PUBLIC "-//W3C//DTD SVG 1.1//EN" "http://www.w3.org/Graphics/SVG/1.1/DTD/svg11.dtd">
<svg version="1.1" xmlns="http://www.w3.org/2000/svg" xmlns:xlink="http://www.w3.org/1999/xlink" x="0px" y="0px"
	 width="326.916px" height="326.916px" viewBox="0 0 326.916 326.916" enable-background="new 0 0 326.916 326.916"
	 xml:space="preserve">
<g id="Layer_2">
	<polyline fill="#FF0000" points="163.458,287.958 298.625,172.625 313.292,109.292 277.292,40.625 213.292,35.292 163.458,66.625 
		89.292,35.292 23.292,77.292 13.958,123.958 57.292,195.292 	"/>
</g>
<g id="Capa_1">
	<g>
		<g>
			<path fill="#030303" d="M163.981,306.067L25.668,180.198c-4.42-4.713-8.394-9.938-11.802-15.53
				c-3.362-5.506-6.161-11.384-8.328-17.474C1.867,136.858,0,126.203,0,115.51c0-52.2,42.462-94.662,94.662-94.662
				c26.277,0,51.059,10.861,68.799,29.64c17.731-18.778,42.524-29.64,68.799-29.64c52.194,0,94.656,42.462,94.656,94.662
				c0,10.51-1.802,21.002-5.353,31.177c-2.265,6.476-5.243,12.731-8.881,18.576c-3.048,4.918-6.563,9.577-10.457,13.859l-0.75,0.749
				L163.981,306.067z M42.445,163.844l121.473,110.501l121.331-111.358c2.802-3.125,5.335-6.507,7.536-10.064
				c2.733-4.397,4.975-9.097,6.679-13.963c2.676-7.688,4.037-15.582,4.037-23.455c0-39.283-31.958-71.241-71.234-71.241
				c-23.714,0-45.803,11.751-59.091,31.438l-9.709,14.378l-9.709-14.373C140.46,56.02,118.374,44.263,94.662,44.263
				c-39.277,0-71.241,31.958-71.241,71.241c0,8.011,1.407,16.024,4.18,23.835c1.63,4.575,3.737,8.995,6.261,13.134
				C36.355,156.565,39.243,160.385,42.445,163.844z"/>
		</g>
	</g>
</g>
</svg>
